<svg xmlns="http://www.w3.org/2000/svg" xmlns:xlink="http://www.w3.org/1999/xlink" width="393" zoomAndPan="magnify" viewBox="0 0 294.75 113.999999" height="152" preserveAspectRatio="xMidYMid meet" version="1.0"><defs><g/><clipPath id="b33f1f047f"><path d="M 201.195312 20.5 L 274.398438 20.5 L 274.398438 93.699219 L 201.195312 93.699219 Z M 201.195312 20.5 " clip-rule="nonzero"/></clipPath><clipPath id="b34519948a"><path d="M 237.796875 20.5 C 217.582031 20.5 201.195312 36.886719 201.195312 57.101562 C 201.195312 77.3125 217.582031 93.699219 237.796875 93.699219 C 258.011719 93.699219 274.398438 77.3125 274.398438 57.101562 C 274.398438 36.886719 258.011719 20.5 237.796875 20.5 Z M 237.796875 20.5 " clip-rule="nonzero"/></clipPath></defs><g clip-path="url(#b33f1f047f)"><g clip-path="url(#b34519948a)"><path fill="#ffffff" d="M 201.195312 20.5 L 274.398438 20.5 L 274.398438 93.699219 L 201.195312 93.699219 Z M 201.195312 20.5 " fill-opacity="1" fill-rule="nonzero"/></g></g><g fill="#fad02c" fill-opacity="1"><g transform="translate(25.902451, 79.648802)"><g><path d="M 18.921875 9.78125 L 4.3125 9.78125 L 4.3125 -44.125 L 18.921875 -44.125 L 18.921875 -37.75 L 12.15625 -37.75 L 12.15625 3.40625 L 18.921875 3.40625 Z M 18.921875 9.78125 "/></g></g></g><g fill="#fad02c" fill-opacity="1"><g transform="translate(46.369466, 79.648802)"><g><path d="M 8.65625 -47.59375 L 8.65625 -36.84375 L 2.46875 -36.84375 L 2.46875 -47.59375 Z M 8.65625 -47.59375 "/></g></g></g><g fill="#fad02c" fill-opacity="1"><g transform="translate(57.493312, 79.648802)"><g><path d="M 23.65625 -34.375 C 24.125 -34.375 24.664062 -34.347656 25.28125 -34.296875 C 25.894531 -34.242188 26.390625 -34.179688 26.765625 -34.109375 L 26.078125 -25.46875 C 25.773438 -25.570312 25.347656 -25.648438 24.796875 -25.703125 C 24.242188 -25.753906 23.765625 -25.78125 23.359375 -25.78125 C 22.171875 -25.78125 21.019531 -25.628906 19.90625 -25.328125 C 18.789062 -25.023438 17.789062 -24.535156 16.90625 -23.859375 C 16.019531 -23.179688 15.316406 -22.296875 14.796875 -21.203125 C 14.285156 -20.109375 14.03125 -18.765625 14.03125 -17.171875 L 14.03125 0 L 4.828125 0 L 4.828125 -33.75 L 11.796875 -33.75 L 13.15625 -28.0625 L 13.609375 -28.0625 C 14.273438 -29.21875 15.101562 -30.269531 16.09375 -31.21875 C 17.09375 -32.175781 18.226562 -32.941406 19.5 -33.515625 C 20.78125 -34.085938 22.164062 -34.375 23.65625 -34.375 Z M 23.65625 -34.375 "/></g></g></g><g fill="#fad02c" fill-opacity="1"><g transform="translate(85.556399, 79.648802)"><g><path d="M 35.171875 -33.75 L 22.1875 -12.609375 L 22.1875 0 L 12.984375 0 L 12.984375 -12.609375 L 0 -33.75 L 10.390625 -33.75 L 17.671875 -20.953125 L 24.78125 -33.75 Z M 35.171875 -33.75 "/></g></g></g><g fill="#fad02c" fill-opacity="1"><g transform="translate(120.720108, 79.648802)"><g><path d="M 19.046875 -6.734375 C 20.046875 -6.734375 21.023438 -6.832031 21.984375 -7.03125 C 22.941406 -7.226562 23.894531 -7.476562 24.84375 -7.78125 L 24.84375 -0.9375 C 23.851562 -0.488281 22.628906 -0.117188 21.171875 0.171875 C 19.710938 0.460938 18.117188 0.609375 16.390625 0.609375 C 14.378906 0.609375 12.570312 0.28125 10.96875 -0.375 C 9.375 -1.03125 8.117188 -2.164062 7.203125 -3.78125 C 6.285156 -5.40625 5.828125 -7.664062 5.828125 -10.5625 L 5.828125 -26.828125 L 1.421875 -26.828125 L 1.421875 -30.71875 L 6.484375 -33.796875 L 9.140625 -40.921875 L 15.03125 -40.921875 L 15.03125 -33.75 L 24.484375 -33.75 L 24.484375 -26.828125 L 15.03125 -26.828125 L 15.03125 -10.5625 C 15.03125 -9.269531 15.394531 -8.304688 16.125 -7.671875 C 16.863281 -7.046875 17.835938 -6.734375 19.046875 -6.734375 Z M 19.046875 -6.734375 "/></g></g></g><g fill="#fad02c" fill-opacity="1"><g transform="translate(147.546006, 79.648802)"><g><path d="M 11.734375 -17.234375 L 0.875 -33.75 L 11.3125 -33.75 L 17.875 -23 L 24.484375 -33.75 L 34.921875 -33.75 L 23.9375 -17.234375 L 35.4375 0 L 24.953125 0 L 17.875 -11.5625 L 10.75 0 L 0.296875 0 Z M 11.734375 -17.234375 "/></g></g></g><g fill="#fad02c" fill-opacity="1"><g transform="translate(183.273635, 79.648802)"><g><path d="M 16.453125 -34.375 C 19.828125 -34.375 22.816406 -33.742188 25.421875 -32.484375 C 28.035156 -31.234375 30.078125 -29.332031 31.546875 -26.78125 C 33.015625 -24.238281 33.75 -21.015625 33.75 -17.109375 C 33.75 -13.191406 33.078125 -9.914062 31.734375 -7.28125 C 30.398438 -4.65625 28.539062 -2.679688 26.15625 -1.359375 C 23.769531 -0.046875 20.988281 0.609375 17.8125 0.609375 C 14.707031 0.609375 12.019531 0.015625 9.75 -1.171875 C 7.476562 -2.359375 5.726562 -4.09375 4.5 -6.375 C 3.269531 -8.664062 2.65625 -11.441406 2.65625 -14.703125 L 2.65625 -19.171875 L 24.421875 -19.171875 C 24.335938 -21.765625 23.5625 -23.800781 22.09375 -25.28125 C 20.625 -26.757812 18.59375 -27.5 16 -27.5 C 13.84375 -27.5 11.867188 -27.28125 10.078125 -26.84375 C 8.285156 -26.414062 6.457031 -25.75 4.59375 -24.84375 L 4.59375 -31.96875 C 6.257812 -32.789062 8.003906 -33.394531 9.828125 -33.78125 C 11.648438 -34.175781 13.859375 -34.375 16.453125 -34.375 Z M 24.234375 -13.03125 L 11.3125 -13.03125 C 11.332031 -11.6875 11.570312 -10.472656 12.03125 -9.390625 C 12.5 -8.316406 13.207031 -7.472656 14.15625 -6.859375 C 15.101562 -6.253906 16.300781 -5.953125 17.75 -5.953125 C 19.539062 -5.953125 21.023438 -6.523438 22.203125 -7.671875 C 23.378906 -8.816406 24.054688 -10.601562 24.234375 -13.03125 Z M 24.234375 -13.03125 "/></g></g></g><g fill="#fad02c" fill-opacity="1"><g transform="translate(219.785825, 79.648802)"><g><path d="M 23.65625 -34.375 C 24.125 -34.375 24.664062 -34.347656 25.28125 -34.296875 C 25.894531 -34.242188 26.390625 -34.179688 26.765625 -34.109375 L 26.078125 -25.46875 C 25.773438 -25.570312 25.347656 -25.648438 24.796875 -25.703125 C 24.242188 -25.753906 23.765625 -25.78125 23.359375 -25.78125 C 22.171875 -25.78125 21.019531 -25.628906 19.90625 -25.328125 C 18.789062 -25.023438 17.789062 -24.535156 16.90625 -23.859375 C 16.019531 -23.179688 15.316406 -22.296875 14.796875 -21.203125 C 14.285156 -20.109375 14.03125 -18.765625 14.03125 -17.171875 L 14.03125 0 L 4.828125 0 L 4.828125 -33.75 L 11.796875 -33.75 L 13.15625 -28.0625 L 13.609375 -28.0625 C 14.273438 -29.21875 15.101562 -30.269531 16.09375 -31.21875 C 17.09375 -32.175781 18.226562 -32.941406 19.5 -33.515625 C 20.78125 -34.085938 22.164062 -34.375 23.65625 -34.375 Z M 23.65625 -34.375 "/></g></g></g><g fill="#fad02c" fill-opacity="1"><g transform="translate(247.848912, 79.648802)"><g><path d="M 1.546875 3.40625 L 8.265625 3.40625 L 8.265625 -37.75 L 1.546875 -37.75 L 1.546875 -44.125 L 16.140625 -44.125 L 16.140625 9.78125 L 1.546875 9.78125 Z M 1.546875 3.40625 "/></g></g></g></svg>