<svg xmlns="http://www.w3.org/2000/svg" xmlns:xlink="http://www.w3.org/1999/xlink" width="584" zoomAndPan="magnify" viewBox="0 0 438 182.249993" height="243" preserveAspectRatio="xMidYMid meet" version="1.0"><defs><g/><clipPath id="1804121df8"><path d="M 29.730469 28.832031 L 403.191406 28.832031 L 403.191406 159.542969 L 29.730469 159.542969 Z M 29.730469 28.832031 " clip-rule="nonzero"/></clipPath><clipPath id="3f243a1f6b"><path d="M 240 70 L 255 70 L 255 119 L 240 119 Z M 240 70 " clip-rule="nonzero"/></clipPath><clipPath id="1e9538e365"><path d="M 230.949219 78.3125 L 251.007812 70.136719 L 267.359375 110.253906 L 247.300781 118.429688 Z M 230.949219 78.3125 " clip-rule="nonzero"/></clipPath><clipPath id="fc9d335b72"><path d="M 230.949219 78.3125 L 251.007812 70.136719 L 267.359375 110.253906 L 247.300781 118.429688 Z M 230.949219 78.3125 " clip-rule="nonzero"/></clipPath><clipPath id="f8dd2fb407"><path d="M 240 73 L 249 73 L 249 119 L 240 119 Z M 240 73 " clip-rule="nonzero"/></clipPath><clipPath id="12a141e475"><path d="M 230.949219 78.3125 L 251.007812 70.136719 L 267.359375 110.253906 L 247.300781 118.429688 Z M 230.949219 78.3125 " clip-rule="nonzero"/></clipPath><clipPath id="52e783b43c"><path d="M 230.949219 78.3125 L 251.007812 70.136719 L 267.359375 110.253906 L 247.300781 118.429688 Z M 230.949219 78.3125 " clip-rule="nonzero"/></clipPath></defs><g clip-path="url(#1804121df8)"><path fill="#07182f" d="M 29.730469 28.832031 L 403.191406 28.832031 L 403.191406 159.542969 L 29.730469 159.542969 Z M 29.730469 28.832031 " fill-opacity="1" fill-rule="nonzero"/></g><g fill="#fad02c" fill-opacity="0.4"><g transform="translate(52.357465, 127.843245)"><g><path d="M 24.109375 -47.5 C 26.023438 -49.957031 28.523438 -51.800781 31.609375 -53.03125 C 34.703125 -54.257812 38.242188 -54.875 42.234375 -54.875 L 42.234375 -37.84375 C 40.503906 -38.039062 39.070312 -38.140625 37.9375 -38.140625 C 33.894531 -38.140625 30.726562 -37.046875 28.4375 -34.859375 C 26.144531 -32.671875 25 -29.316406 25 -24.796875 L 25 0 L 6.078125 0 L 6.078125 -53.984375 L 24.109375 -53.984375 Z M 24.109375 -47.5 "/></g></g></g><g fill="#fad02c" fill-opacity="0.4"><g transform="translate(86.316036, 127.843245)"><g><path d="M 62.84375 -53.984375 L 62.84375 0 L 44.8125 0 L 44.8125 -5.78125 C 42.820312 -3.582031 40.429688 -1.921875 37.640625 -0.796875 C 34.859375 0.328125 31.90625 0.890625 28.78125 0.890625 C 21.8125 0.890625 16.25 -1.164062 12.09375 -5.28125 C 7.945312 -9.394531 5.875 -15.566406 5.875 -23.796875 L 5.875 -53.984375 L 24.796875 -53.984375 L 24.796875 -26.890625 C 24.796875 -22.835938 25.554688 -19.878906 27.078125 -18.015625 C 28.609375 -16.160156 30.835938 -15.234375 33.765625 -15.234375 C 36.753906 -15.234375 39.191406 -16.28125 41.078125 -18.375 C 42.972656 -20.46875 43.921875 -23.671875 43.921875 -27.984375 L 43.921875 -53.984375 Z M 62.84375 -53.984375 "/></g></g></g><g fill="#fad02c" fill-opacity="0.4"><g transform="translate(145.071588, 127.843245)"><g><path d="M 43.328125 -2.1875 C 41.734375 -1.195312 39.789062 -0.4375 37.5 0.09375 C 35.207031 0.625 32.765625 0.890625 30.171875 0.890625 C 23.140625 0.890625 17.726562 -0.832031 13.9375 -4.28125 C 10.15625 -7.738281 8.265625 -12.882812 8.265625 -19.71875 L 8.265625 -37.84375 L 0.390625 -37.84375 L 0.390625 -51.984375 L 8.265625 -51.984375 L 8.265625 -66.03125 L 27.1875 -66.03125 L 27.1875 -51.984375 L 39.53125 -51.984375 L 39.53125 -37.84375 L 27.1875 -37.84375 L 27.1875 -19.921875 C 27.1875 -17.992188 27.703125 -16.484375 28.734375 -15.390625 C 29.765625 -14.296875 31.140625 -13.75 32.859375 -13.75 C 35.054688 -13.75 36.984375 -14.3125 38.640625 -15.4375 Z M 43.328125 -2.1875 "/></g></g></g><g fill="#fad02c" fill-opacity="0.4"><g transform="translate(179.428506, 127.843245)"><g><path d="M 64.140625 -53.984375 L 64.140625 -9.859375 C 64.140625 0.160156 61.414062 7.675781 55.96875 12.6875 C 50.53125 17.707031 42.695312 20.21875 32.46875 20.21875 C 27.15625 20.21875 22.175781 19.617188 17.53125 18.421875 C 12.882812 17.222656 8.929688 15.460938 5.671875 13.140625 L 12.546875 -0.09375 C 14.734375 1.695312 17.503906 3.101562 20.859375 4.125 C 24.210938 5.15625 27.519531 5.671875 30.78125 5.671875 C 35.757812 5.671875 39.410156 4.578125 41.734375 2.390625 C 44.054688 0.203125 45.21875 -3.050781 45.21875 -7.375 L 45.21875 -9.15625 C 41.5625 -4.90625 36.21875 -2.78125 29.1875 -2.78125 C 24.40625 -2.78125 19.988281 -3.859375 15.9375 -6.015625 C 11.882812 -8.179688 8.660156 -11.238281 6.265625 -15.1875 C 3.878906 -19.132812 2.6875 -23.695312 2.6875 -28.875 C 2.6875 -33.988281 3.878906 -38.519531 6.265625 -42.46875 C 8.660156 -46.425781 11.882812 -49.484375 15.9375 -51.640625 C 19.988281 -53.796875 24.40625 -54.875 29.1875 -54.875 C 36.882812 -54.875 42.523438 -52.382812 46.109375 -47.40625 L 46.109375 -53.984375 Z M 33.65625 -17.828125 C 37.039062 -17.828125 39.847656 -18.851562 42.078125 -20.90625 C 44.304688 -22.96875 45.421875 -25.625 45.421875 -28.875 C 45.421875 -32.132812 44.320312 -34.773438 42.125 -36.796875 C 39.9375 -38.828125 37.113281 -39.84375 33.65625 -39.84375 C 30.207031 -39.84375 27.367188 -38.828125 25.140625 -36.796875 C 22.921875 -34.773438 21.8125 -32.132812 21.8125 -28.875 C 21.8125 -25.625 22.9375 -22.96875 25.1875 -20.90625 C 27.445312 -18.851562 30.269531 -17.828125 33.65625 -17.828125 Z M 33.65625 -17.828125 "/></g></g></g><g fill="#fad02c" fill-opacity="0.4"><g transform="translate(239.478698, 127.843245)"><g><path d="M 61.25 -26.890625 C 61.25 -26.753906 61.148438 -25.191406 60.953125 -22.203125 L 21.71875 -22.203125 C 22.507812 -19.421875 24.050781 -17.28125 26.34375 -15.78125 C 28.632812 -14.289062 31.503906 -13.546875 34.953125 -13.546875 C 37.546875 -13.546875 39.785156 -13.910156 41.671875 -14.640625 C 43.566406 -15.367188 45.476562 -16.5625 47.40625 -18.21875 L 57.359375 -7.875 C 52.117188 -2.03125 44.453125 0.890625 34.359375 0.890625 C 28.046875 0.890625 22.5 -0.300781 17.71875 -2.6875 C 12.945312 -5.082031 9.25 -8.398438 6.625 -12.640625 C 4 -16.890625 2.6875 -21.707031 2.6875 -27.09375 C 2.6875 -32.40625 3.960938 -37.164062 6.515625 -41.375 C 9.078125 -45.59375 12.613281 -48.894531 17.125 -51.28125 C 21.644531 -53.675781 26.726562 -54.875 32.375 -54.875 C 37.75 -54.875 42.625 -53.757812 47 -51.53125 C 51.382812 -49.3125 54.851562 -46.09375 57.40625 -41.875 C 59.96875 -37.664062 61.25 -32.671875 61.25 -26.890625 Z M 32.46875 -41.4375 C 29.539062 -41.4375 27.097656 -40.601562 25.140625 -38.9375 C 23.179688 -37.28125 21.9375 -35.023438 21.40625 -32.171875 L 43.515625 -32.171875 C 42.984375 -35.023438 41.738281 -37.28125 39.78125 -38.9375 C 37.820312 -40.601562 35.382812 -41.4375 32.46875 -41.4375 Z M 32.46875 -41.4375 "/></g></g></g><g fill="#fad02c" fill-opacity="0.4"><g transform="translate(293.254943, 127.843245)"><g><path d="M 24.109375 -47.5 C 26.023438 -49.957031 28.523438 -51.800781 31.609375 -53.03125 C 34.703125 -54.257812 38.242188 -54.875 42.234375 -54.875 L 42.234375 -37.84375 C 40.503906 -38.039062 39.070312 -38.140625 37.9375 -38.140625 C 33.894531 -38.140625 30.726562 -37.046875 28.4375 -34.859375 C 26.144531 -32.671875 25 -29.316406 25 -24.796875 L 25 0 L 6.078125 0 L 6.078125 -53.984375 L 24.109375 -53.984375 Z M 24.109375 -47.5 "/></g></g></g><g fill="#fad02c" fill-opacity="0.4"><g transform="translate(327.213506, 127.843245)"><g><path d="M 26.6875 -51.984375 L 39.53125 -51.984375 L 39.53125 -37.84375 L 27.1875 -37.84375 L 27.1875 0 L 8.265625 0 L 8.265625 -37.84375 L 0.390625 -37.84375 L 0.390625 -51.984375 L 8.265625 -51.984375 L 8.265625 -53.375 C 8.265625 -59.945312 10.238281 -65.160156 14.1875 -69.015625 C 18.144531 -72.867188 23.675781 -74.796875 30.78125 -74.796875 C 33.164062 -74.796875 35.484375 -74.5625 37.734375 -74.09375 C 39.992188 -73.632812 41.859375 -72.9375 43.328125 -72 L 38.640625 -58.65625 C 36.785156 -59.71875 34.894531 -60.25 32.96875 -60.25 C 30.976562 -60.25 29.429688 -59.648438 28.328125 -58.453125 C 27.234375 -57.265625 26.6875 -55.507812 26.6875 -53.1875 Z M 26.6875 -51.984375 "/></g></g></g><g fill="#fad02c" fill-opacity="0.4"><g transform="translate(357.487381, 127.843245)"><g><path d="M 3.78125 20.21875 C -1.726562 20.21875 -6.109375 19.285156 -9.359375 17.421875 L -4.578125 3.984375 C -2.847656 5.046875 -0.890625 5.578125 1.296875 5.578125 C 3.023438 5.578125 4.382812 4.976562 5.375 3.78125 C 6.375 2.582031 6.875 0.820312 6.875 -1.5 L 6.875 -53.984375 L 25.796875 -53.984375 L 25.796875 -1.390625 C 25.796875 5.242188 23.851562 10.503906 19.96875 14.390625 C 16.082031 18.273438 10.6875 20.21875 3.78125 20.21875 Z M 16.34375 -59.953125 C 12.882812 -59.953125 10.09375 -60.914062 7.96875 -62.84375 C 5.84375 -64.769531 4.78125 -67.160156 4.78125 -70.015625 C 4.78125 -72.867188 5.84375 -75.257812 7.96875 -77.1875 C 10.09375 -79.113281 12.882812 -80.078125 16.34375 -80.078125 C 19.789062 -80.078125 22.578125 -79.160156 24.703125 -77.328125 C 26.828125 -75.503906 27.890625 -73.164062 27.890625 -70.3125 C 27.890625 -67.320312 26.828125 -64.847656 24.703125 -62.890625 C 22.578125 -60.929688 19.789062 -59.953125 16.34375 -59.953125 Z M 16.34375 -59.953125 "/></g></g></g><g fill="#fad02c" fill-opacity="1"><g transform="translate(47.956172, 123.441952)"><g><path d="M 24.109375 -47.5 C 26.023438 -49.957031 28.523438 -51.800781 31.609375 -53.03125 C 34.703125 -54.257812 38.242188 -54.875 42.234375 -54.875 L 42.234375 -37.84375 C 40.503906 -38.039062 39.070312 -38.140625 37.9375 -38.140625 C 33.894531 -38.140625 30.726562 -37.046875 28.4375 -34.859375 C 26.144531 -32.671875 25 -29.316406 25 -24.796875 L 25 0 L 6.078125 0 L 6.078125 -53.984375 L 24.109375 -53.984375 Z M 24.109375 -47.5 "/></g></g></g><g fill="#fad02c" fill-opacity="1"><g transform="translate(81.914743, 123.441952)"><g><path d="M 62.84375 -53.984375 L 62.84375 0 L 44.8125 0 L 44.8125 -5.78125 C 42.820312 -3.582031 40.429688 -1.921875 37.640625 -0.796875 C 34.859375 0.328125 31.90625 0.890625 28.78125 0.890625 C 21.8125 0.890625 16.25 -1.164062 12.09375 -5.28125 C 7.945312 -9.394531 5.875 -15.566406 5.875 -23.796875 L 5.875 -53.984375 L 24.796875 -53.984375 L 24.796875 -26.890625 C 24.796875 -22.835938 25.554688 -19.878906 27.078125 -18.015625 C 28.609375 -16.160156 30.835938 -15.234375 33.765625 -15.234375 C 36.753906 -15.234375 39.191406 -16.28125 41.078125 -18.375 C 42.972656 -20.46875 43.921875 -23.671875 43.921875 -27.984375 L 43.921875 -53.984375 Z M 62.84375 -53.984375 "/></g></g></g><g fill="#fad02c" fill-opacity="1"><g transform="translate(140.670295, 123.441952)"><g><path d="M 43.328125 -2.1875 C 41.734375 -1.195312 39.789062 -0.4375 37.5 0.09375 C 35.207031 0.625 32.765625 0.890625 30.171875 0.890625 C 23.140625 0.890625 17.726562 -0.832031 13.9375 -4.28125 C 10.15625 -7.738281 8.265625 -12.882812 8.265625 -19.71875 L 8.265625 -37.84375 L 0.390625 -37.84375 L 0.390625 -51.984375 L 8.265625 -51.984375 L 8.265625 -66.03125 L 27.1875 -66.03125 L 27.1875 -51.984375 L 39.53125 -51.984375 L 39.53125 -37.84375 L 27.1875 -37.84375 L 27.1875 -19.921875 C 27.1875 -17.992188 27.703125 -16.484375 28.734375 -15.390625 C 29.765625 -14.296875 31.140625 -13.75 32.859375 -13.75 C 35.054688 -13.75 36.984375 -14.3125 38.640625 -15.4375 Z M 43.328125 -2.1875 "/></g></g></g><g fill="#fad02c" fill-opacity="1"><g transform="translate(175.027212, 123.441952)"><g><path d="M 64.140625 -53.984375 L 64.140625 -9.859375 C 64.140625 0.160156 61.414062 7.675781 55.96875 12.6875 C 50.53125 17.707031 42.695312 20.21875 32.46875 20.21875 C 27.15625 20.21875 22.175781 19.617188 17.53125 18.421875 C 12.882812 17.222656 8.929688 15.460938 5.671875 13.140625 L 12.546875 -0.09375 C 14.734375 1.695312 17.503906 3.101562 20.859375 4.125 C 24.210938 5.15625 27.519531 5.671875 30.78125 5.671875 C 35.757812 5.671875 39.410156 4.578125 41.734375 2.390625 C 44.054688 0.203125 45.21875 -3.050781 45.21875 -7.375 L 45.21875 -9.15625 C 41.5625 -4.90625 36.21875 -2.78125 29.1875 -2.78125 C 24.40625 -2.78125 19.988281 -3.859375 15.9375 -6.015625 C 11.882812 -8.179688 8.660156 -11.238281 6.265625 -15.1875 C 3.878906 -19.132812 2.6875 -23.695312 2.6875 -28.875 C 2.6875 -33.988281 3.878906 -38.519531 6.265625 -42.46875 C 8.660156 -46.425781 11.882812 -49.484375 15.9375 -51.640625 C 19.988281 -53.796875 24.40625 -54.875 29.1875 -54.875 C 36.882812 -54.875 42.523438 -52.382812 46.109375 -47.40625 L 46.109375 -53.984375 Z M 33.65625 -17.828125 C 37.039062 -17.828125 39.847656 -18.851562 42.078125 -20.90625 C 44.304688 -22.96875 45.421875 -25.625 45.421875 -28.875 C 45.421875 -32.132812 44.320312 -34.773438 42.125 -36.796875 C 39.9375 -38.828125 37.113281 -39.84375 33.65625 -39.84375 C 30.207031 -39.84375 27.367188 -38.828125 25.140625 -36.796875 C 22.921875 -34.773438 21.8125 -32.132812 21.8125 -28.875 C 21.8125 -25.625 22.9375 -22.96875 25.1875 -20.90625 C 27.445312 -18.851562 30.269531 -17.828125 33.65625 -17.828125 Z M 33.65625 -17.828125 "/></g></g></g><g fill="#fad02c" fill-opacity="1"><g transform="translate(235.077404, 123.441952)"><g><path d="M 61.25 -26.890625 C 61.25 -26.753906 61.148438 -25.191406 60.953125 -22.203125 L 21.71875 -22.203125 C 22.507812 -19.421875 24.050781 -17.28125 26.34375 -15.78125 C 28.632812 -14.289062 31.503906 -13.546875 34.953125 -13.546875 C 37.546875 -13.546875 39.785156 -13.910156 41.671875 -14.640625 C 43.566406 -15.367188 45.476562 -16.5625 47.40625 -18.21875 L 57.359375 -7.875 C 52.117188 -2.03125 44.453125 0.890625 34.359375 0.890625 C 28.046875 0.890625 22.5 -0.300781 17.71875 -2.6875 C 12.945312 -5.082031 9.25 -8.398438 6.625 -12.640625 C 4 -16.890625 2.6875 -21.707031 2.6875 -27.09375 C 2.6875 -32.40625 3.960938 -37.164062 6.515625 -41.375 C 9.078125 -45.59375 12.613281 -48.894531 17.125 -51.28125 C 21.644531 -53.675781 26.726562 -54.875 32.375 -54.875 C 37.75 -54.875 42.625 -53.757812 47 -51.53125 C 51.382812 -49.3125 54.851562 -46.09375 57.40625 -41.875 C 59.96875 -37.664062 61.25 -32.671875 61.25 -26.890625 Z M 32.46875 -41.4375 C 29.539062 -41.4375 27.097656 -40.601562 25.140625 -38.9375 C 23.179688 -37.28125 21.9375 -35.023438 21.40625 -32.171875 L 43.515625 -32.171875 C 42.984375 -35.023438 41.738281 -37.28125 39.78125 -38.9375 C 37.820312 -40.601562 35.382812 -41.4375 32.46875 -41.4375 Z M 32.46875 -41.4375 "/></g></g></g><g fill="#fad02c" fill-opacity="1"><g transform="translate(288.85365, 123.441952)"><g><path d="M 24.109375 -47.5 C 26.023438 -49.957031 28.523438 -51.800781 31.609375 -53.03125 C 34.703125 -54.257812 38.242188 -54.875 42.234375 -54.875 L 42.234375 -37.84375 C 40.503906 -38.039062 39.070312 -38.140625 37.9375 -38.140625 C 33.894531 -38.140625 30.726562 -37.046875 28.4375 -34.859375 C 26.144531 -32.671875 25 -29.316406 25 -24.796875 L 25 0 L 6.078125 0 L 6.078125 -53.984375 L 24.109375 -53.984375 Z M 24.109375 -47.5 "/></g></g></g><g fill="#fad02c" fill-opacity="1"><g transform="translate(322.812213, 123.441952)"><g><path d="M 26.6875 -51.984375 L 39.53125 -51.984375 L 39.53125 -37.84375 L 27.1875 -37.84375 L 27.1875 0 L 8.265625 0 L 8.265625 -37.84375 L 0.390625 -37.84375 L 0.390625 -51.984375 L 8.265625 -51.984375 L 8.265625 -53.375 C 8.265625 -59.945312 10.238281 -65.160156 14.1875 -69.015625 C 18.144531 -72.867188 23.675781 -74.796875 30.78125 -74.796875 C 33.164062 -74.796875 35.484375 -74.5625 37.734375 -74.09375 C 39.992188 -73.632812 41.859375 -72.9375 43.328125 -72 L 38.640625 -58.65625 C 36.785156 -59.71875 34.894531 -60.25 32.96875 -60.25 C 30.976562 -60.25 29.429688 -59.648438 28.328125 -58.453125 C 27.234375 -57.265625 26.6875 -55.507812 26.6875 -53.1875 Z M 26.6875 -51.984375 "/></g></g></g><g fill="#fad02c" fill-opacity="1"><g transform="translate(353.086087, 123.441952)"><g><path d="M 3.78125 20.21875 C -1.726562 20.21875 -6.109375 19.285156 -9.359375 17.421875 L -4.578125 3.984375 C -2.847656 5.046875 -0.890625 5.578125 1.296875 5.578125 C 3.023438 5.578125 4.382812 4.976562 5.375 3.78125 C 6.375 2.582031 6.875 0.820312 6.875 -1.5 L 6.875 -53.984375 L 25.796875 -53.984375 L 25.796875 -1.390625 C 25.796875 5.242188 23.851562 10.503906 19.96875 14.390625 C 16.082031 18.273438 10.6875 20.21875 3.78125 20.21875 Z M 16.34375 -59.953125 C 12.882812 -59.953125 10.09375 -60.914062 7.96875 -62.84375 C 5.84375 -64.769531 4.78125 -67.160156 4.78125 -70.015625 C 4.78125 -72.867188 5.84375 -75.257812 7.96875 -77.1875 C 10.09375 -79.113281 12.882812 -80.078125 16.34375 -80.078125 C 19.789062 -80.078125 22.578125 -79.160156 24.703125 -77.328125 C 26.828125 -75.503906 27.890625 -73.164062 27.890625 -70.3125 C 27.890625 -67.320312 26.828125 -64.847656 24.703125 -62.890625 C 22.578125 -60.929688 19.789062 -59.953125 16.34375 -59.953125 Z M 16.34375 -59.953125 "/></g></g></g><g clip-path="url(#3f243a1f6b)"><g clip-path="url(#1e9538e365)"><g clip-path="url(#fc9d335b72)"><path fill="#07182f" d="M 241.0625 74.191406 L 251.339844 70.003906 L 248.816406 87.136719 L 254.839844 84.679688 L 247.28125 118.359375 L 247.140625 94.6875 L 240.714844 97.683594 Z M 241.0625 74.191406 " fill-opacity="1" fill-rule="nonzero"/></g></g></g><g clip-path="url(#f8dd2fb407)"><g clip-path="url(#12a141e475)"><g clip-path="url(#52e783b43c)"><path fill="#07182f" d="M 241.0625 74.191406 L 242.832031 73.46875 L 240.714844 97.683594 Z M 247.28125 118.359375 L 248.382812 94.179688 L 247.140625 94.6875 Z M 247.28125 118.359375 " fill-opacity="1" fill-rule="nonzero"/></g></g></g></svg>