<svg xmlns="http://www.w3.org/2000/svg" xmlns:xlink="http://www.w3.org/1999/xlink" width="583" zoomAndPan="magnify" viewBox="0 0 437.25 177.749994" height="237" preserveAspectRatio="xMidYMid meet" version="1.0"><defs><g/><clipPath id="a46b37de1e"><path d="M 30.773438 28.929688 L 405.128906 28.929688 L 405.128906 159.953125 L 30.773438 159.953125 Z M 30.773438 28.929688 " clip-rule="nonzero"/></clipPath><clipPath id="fc89ae1538"><path d="M 242 70 L 257 70 L 257 119 L 242 119 Z M 242 70 " clip-rule="nonzero"/></clipPath><clipPath id="f17a488c3b"><path d="M 232.476562 78.527344 L 252.582031 70.332031 L 268.972656 110.546875 L 248.863281 118.742188 Z M 232.476562 78.527344 " clip-rule="nonzero"/></clipPath><clipPath id="cfdaba858a"><path d="M 232.476562 78.527344 L 252.582031 70.332031 L 268.972656 110.546875 L 248.863281 118.742188 Z M 232.476562 78.527344 " clip-rule="nonzero"/></clipPath><clipPath id="5800f87ce3"><path d="M 242 73 L 250 73 L 250 119 L 242 119 Z M 242 73 " clip-rule="nonzero"/></clipPath><clipPath id="8a937241a3"><path d="M 232.476562 78.527344 L 252.582031 70.332031 L 268.972656 110.546875 L 248.863281 118.742188 Z M 232.476562 78.527344 " clip-rule="nonzero"/></clipPath><clipPath id="1b1a3a0e92"><path d="M 232.476562 78.527344 L 252.582031 70.332031 L 268.972656 110.546875 L 248.863281 118.742188 Z M 232.476562 78.527344 " clip-rule="nonzero"/></clipPath></defs><g clip-path="url(#a46b37de1e)"><path fill="#07182f" d="M 30.773438 28.929688 L 405.128906 28.929688 L 405.128906 159.953125 L 30.773438 159.953125 Z M 30.773438 28.929688 " fill-opacity="1" fill-rule="nonzero"/></g><g fill="#ff00ff" fill-opacity="1"><g transform="translate(50.914937, 123.765099)"><g><path d="M 24.15625 -47.625 C 26.082031 -50.082031 28.59375 -51.925781 31.6875 -53.15625 C 34.789062 -54.382812 38.335938 -55 42.328125 -55 L 42.328125 -37.9375 C 40.597656 -38.132812 39.164062 -38.234375 38.03125 -38.234375 C 33.96875 -38.234375 30.789062 -37.132812 28.5 -34.9375 C 26.207031 -32.738281 25.0625 -29.378906 25.0625 -24.859375 L 25.0625 0 L 6.09375 0 L 6.09375 -54.109375 L 24.15625 -54.109375 Z M 24.15625 -47.625 "/></g></g></g><g fill="#ff00ff" fill-opacity="1"><g transform="translate(84.954869, 123.765099)"><g><path d="M 62.984375 -54.109375 L 62.984375 0 L 44.921875 0 L 44.921875 -5.796875 C 42.921875 -3.597656 40.523438 -1.929688 37.734375 -0.796875 C 34.941406 0.335938 31.976562 0.90625 28.84375 0.90625 C 21.863281 0.90625 16.289062 -1.15625 12.125 -5.28125 C 7.96875 -9.414062 5.890625 -15.609375 5.890625 -23.859375 L 5.890625 -54.109375 L 24.859375 -54.109375 L 24.859375 -26.953125 C 24.859375 -22.890625 25.625 -19.925781 27.15625 -18.0625 C 28.6875 -16.207031 30.914062 -15.28125 33.84375 -15.28125 C 36.832031 -15.28125 39.273438 -16.328125 41.171875 -18.421875 C 43.078125 -20.515625 44.03125 -23.722656 44.03125 -28.046875 L 44.03125 -54.109375 Z M 62.984375 -54.109375 "/></g></g></g><g fill="#ff00ff" fill-opacity="1"><g transform="translate(143.851193, 123.765099)"><g><path d="M 43.421875 -2.203125 C 41.828125 -1.203125 39.878906 -0.4375 37.578125 0.09375 C 35.285156 0.632812 32.84375 0.90625 30.25 0.90625 C 23.195312 0.90625 17.769531 -0.820312 13.96875 -4.28125 C 10.175781 -7.75 8.28125 -12.910156 8.28125 -19.765625 L 8.28125 -37.9375 L 0.40625 -37.9375 L 0.40625 -52.109375 L 8.28125 -52.109375 L 8.28125 -66.1875 L 27.25 -66.1875 L 27.25 -52.109375 L 39.625 -52.109375 L 39.625 -37.9375 L 27.25 -37.9375 L 27.25 -19.96875 C 27.25 -18.039062 27.765625 -16.523438 28.796875 -15.421875 C 29.828125 -14.328125 31.207031 -13.78125 32.9375 -13.78125 C 35.132812 -13.78125 37.066406 -14.34375 38.734375 -15.46875 Z M 43.421875 -2.203125 "/></g></g></g><g fill="#ff00ff" fill-opacity="1"><g transform="translate(178.290426, 123.765099)"><g><path d="M 64.296875 -54.109375 L 64.296875 -9.890625 C 64.296875 0.160156 61.566406 7.695312 56.109375 12.71875 C 50.648438 17.75 42.796875 20.265625 32.546875 20.265625 C 27.222656 20.265625 22.226562 19.664062 17.5625 18.46875 C 12.90625 17.269531 8.945312 15.503906 5.6875 13.171875 L 12.578125 -0.09375 C 14.773438 1.695312 17.550781 3.109375 20.90625 4.140625 C 24.269531 5.171875 27.582031 5.6875 30.84375 5.6875 C 35.832031 5.6875 39.492188 4.585938 41.828125 2.390625 C 44.160156 0.191406 45.328125 -3.066406 45.328125 -7.390625 L 45.328125 -9.1875 C 41.660156 -4.925781 36.300781 -2.796875 29.25 -2.796875 C 24.457031 -2.796875 20.03125 -3.875 15.96875 -6.03125 C 11.914062 -8.195312 8.691406 -11.257812 6.296875 -15.21875 C 3.898438 -19.175781 2.703125 -23.753906 2.703125 -28.953125 C 2.703125 -34.078125 3.898438 -38.617188 6.296875 -42.578125 C 8.691406 -46.535156 11.914062 -49.59375 15.96875 -51.75 C 20.03125 -53.914062 24.457031 -55 29.25 -55 C 36.96875 -55 42.625 -52.503906 46.21875 -47.515625 L 46.21875 -54.109375 Z M 33.734375 -17.875 C 37.128906 -17.875 39.941406 -18.90625 42.171875 -20.96875 C 44.398438 -23.03125 45.515625 -25.691406 45.515625 -28.953125 C 45.515625 -32.210938 44.414062 -34.859375 42.21875 -36.890625 C 40.03125 -38.921875 37.203125 -39.9375 33.734375 -39.9375 C 30.273438 -39.9375 27.429688 -38.921875 25.203125 -36.890625 C 22.972656 -34.859375 21.859375 -32.210938 21.859375 -28.953125 C 21.859375 -25.691406 22.988281 -23.03125 25.25 -20.96875 C 27.519531 -18.90625 30.347656 -17.875 33.734375 -17.875 Z M 33.734375 -17.875 "/></g></g></g><g fill="#ff00ff" fill-opacity="1"><g transform="translate(238.484492, 123.765099)"><g><path d="M 61.390625 -26.953125 C 61.390625 -26.816406 61.289062 -25.253906 61.09375 -22.265625 L 21.765625 -22.265625 C 22.554688 -19.460938 24.097656 -17.3125 26.390625 -15.8125 C 28.691406 -14.320312 31.578125 -13.578125 35.046875 -13.578125 C 37.640625 -13.578125 39.882812 -13.941406 41.78125 -14.671875 C 43.675781 -15.398438 45.585938 -16.597656 47.515625 -18.265625 L 57.5 -7.890625 C 52.238281 -2.023438 44.550781 0.90625 34.4375 0.90625 C 28.113281 0.90625 22.554688 -0.289062 17.765625 -2.6875 C 12.972656 -5.09375 9.265625 -8.421875 6.640625 -12.671875 C 4.015625 -16.929688 2.703125 -21.757812 2.703125 -27.15625 C 2.703125 -32.476562 3.976562 -37.25 6.53125 -41.46875 C 9.09375 -45.695312 12.632812 -49.007812 17.15625 -51.40625 C 21.6875 -53.800781 26.78125 -55 32.4375 -55 C 37.832031 -55 42.722656 -53.882812 47.109375 -51.65625 C 51.503906 -49.425781 54.984375 -46.195312 57.546875 -41.96875 C 60.109375 -37.75 61.390625 -32.742188 61.390625 -26.953125 Z M 32.546875 -41.53125 C 29.617188 -41.53125 27.171875 -40.695312 25.203125 -39.03125 C 23.242188 -37.363281 22 -35.101562 21.46875 -32.25 L 43.625 -32.25 C 43.09375 -35.101562 41.84375 -37.363281 39.875 -39.03125 C 37.914062 -40.695312 35.472656 -41.53125 32.546875 -41.53125 Z M 32.546875 -41.53125 "/></g></g></g><g fill="#ff00ff" fill-opacity="1"><g transform="translate(292.389579, 123.765099)"><g><path d="M 24.15625 -47.625 C 26.082031 -50.082031 28.59375 -51.925781 31.6875 -53.15625 C 34.789062 -54.382812 38.335938 -55 42.328125 -55 L 42.328125 -37.9375 C 40.597656 -38.132812 39.164062 -38.234375 38.03125 -38.234375 C 33.96875 -38.234375 30.789062 -37.132812 28.5 -34.9375 C 26.207031 -32.738281 25.0625 -29.378906 25.0625 -24.859375 L 25.0625 0 L 6.09375 0 L 6.09375 -54.109375 L 24.15625 -54.109375 Z M 24.15625 -47.625 "/></g></g></g><g fill="#ff00ff" fill-opacity="1"><g transform="translate(326.429503, 123.765099)"><g><path d="M 26.75 -52.109375 L 39.625 -52.109375 L 39.625 -37.9375 L 27.25 -37.9375 L 27.25 0 L 8.28125 0 L 8.28125 -37.9375 L 0.40625 -37.9375 L 0.40625 -52.109375 L 8.28125 -52.109375 L 8.28125 -53.515625 C 8.28125 -60.097656 10.257812 -65.316406 14.21875 -69.171875 C 18.1875 -73.035156 23.726562 -74.96875 30.84375 -74.96875 C 33.238281 -74.96875 35.566406 -74.734375 37.828125 -74.265625 C 40.097656 -73.804688 41.960938 -73.109375 43.421875 -72.171875 L 38.734375 -58.796875 C 36.867188 -59.859375 34.972656 -60.390625 33.046875 -60.390625 C 31.046875 -60.390625 29.492188 -59.789062 28.390625 -58.59375 C 27.296875 -57.394531 26.75 -55.632812 26.75 -53.3125 Z M 26.75 -52.109375 "/></g></g></g><g fill="#ff00ff" fill-opacity="1"><g transform="translate(356.77591, 123.765099)"><g><path d="M 3.796875 20.265625 C -1.734375 20.265625 -6.128906 19.332031 -9.390625 17.46875 L -4.59375 4 C -2.863281 5.0625 -0.898438 5.59375 1.296875 5.59375 C 3.023438 5.59375 4.390625 4.992188 5.390625 3.796875 C 6.390625 2.597656 6.890625 0.832031 6.890625 -1.5 L 6.890625 -54.109375 L 25.859375 -54.109375 L 25.859375 -1.390625 C 25.859375 5.253906 23.910156 10.523438 20.015625 14.421875 C 16.117188 18.316406 10.710938 20.265625 3.796875 20.265625 Z M 16.359375 -60.09375 C 12.898438 -60.09375 10.101562 -61.054688 7.96875 -62.984375 C 5.84375 -64.921875 4.78125 -67.316406 4.78125 -70.171875 C 4.78125 -73.035156 5.84375 -75.429688 7.96875 -77.359375 C 10.101562 -79.296875 12.898438 -80.265625 16.359375 -80.265625 C 19.828125 -80.265625 22.625 -79.347656 24.75 -77.515625 C 26.875 -75.679688 27.9375 -73.335938 27.9375 -70.484375 C 27.9375 -67.484375 26.875 -65 24.75 -63.03125 C 22.625 -61.070312 19.828125 -60.09375 16.359375 -60.09375 Z M 16.359375 -60.09375 "/></g></g></g><g fill="#00ffff" fill-opacity="1"><g transform="translate(47.17137, 123.765099)"><g><path d="M 24.15625 -47.625 C 26.082031 -50.082031 28.59375 -51.925781 31.6875 -53.15625 C 34.789062 -54.382812 38.335938 -55 42.328125 -55 L 42.328125 -37.9375 C 40.597656 -38.132812 39.164062 -38.234375 38.03125 -38.234375 C 33.96875 -38.234375 30.789062 -37.132812 28.5 -34.9375 C 26.207031 -32.738281 25.0625 -29.378906 25.0625 -24.859375 L 25.0625 0 L 6.09375 0 L 6.09375 -54.109375 L 24.15625 -54.109375 Z M 24.15625 -47.625 "/></g></g></g><g fill="#00ffff" fill-opacity="1"><g transform="translate(81.211302, 123.765099)"><g><path d="M 62.984375 -54.109375 L 62.984375 0 L 44.921875 0 L 44.921875 -5.796875 C 42.921875 -3.597656 40.523438 -1.929688 37.734375 -0.796875 C 34.941406 0.335938 31.976562 0.90625 28.84375 0.90625 C 21.863281 0.90625 16.289062 -1.15625 12.125 -5.28125 C 7.96875 -9.414062 5.890625 -15.609375 5.890625 -23.859375 L 5.890625 -54.109375 L 24.859375 -54.109375 L 24.859375 -26.953125 C 24.859375 -22.890625 25.625 -19.925781 27.15625 -18.0625 C 28.6875 -16.207031 30.914062 -15.28125 33.84375 -15.28125 C 36.832031 -15.28125 39.273438 -16.328125 41.171875 -18.421875 C 43.078125 -20.515625 44.03125 -23.722656 44.03125 -28.046875 L 44.03125 -54.109375 Z M 62.984375 -54.109375 "/></g></g></g><g fill="#00ffff" fill-opacity="1"><g transform="translate(140.107626, 123.765099)"><g><path d="M 43.421875 -2.203125 C 41.828125 -1.203125 39.878906 -0.4375 37.578125 0.09375 C 35.285156 0.632812 32.84375 0.90625 30.25 0.90625 C 23.195312 0.90625 17.769531 -0.820312 13.96875 -4.28125 C 10.175781 -7.75 8.28125 -12.910156 8.28125 -19.765625 L 8.28125 -37.9375 L 0.40625 -37.9375 L 0.40625 -52.109375 L 8.28125 -52.109375 L 8.28125 -66.1875 L 27.25 -66.1875 L 27.25 -52.109375 L 39.625 -52.109375 L 39.625 -37.9375 L 27.25 -37.9375 L 27.25 -19.96875 C 27.25 -18.039062 27.765625 -16.523438 28.796875 -15.421875 C 29.828125 -14.328125 31.207031 -13.78125 32.9375 -13.78125 C 35.132812 -13.78125 37.066406 -14.34375 38.734375 -15.46875 Z M 43.421875 -2.203125 "/></g></g></g><g fill="#00ffff" fill-opacity="1"><g transform="translate(174.546858, 123.765099)"><g><path d="M 64.296875 -54.109375 L 64.296875 -9.890625 C 64.296875 0.160156 61.566406 7.695312 56.109375 12.71875 C 50.648438 17.75 42.796875 20.265625 32.546875 20.265625 C 27.222656 20.265625 22.226562 19.664062 17.5625 18.46875 C 12.90625 17.269531 8.945312 15.503906 5.6875 13.171875 L 12.578125 -0.09375 C 14.773438 1.695312 17.550781 3.109375 20.90625 4.140625 C 24.269531 5.171875 27.582031 5.6875 30.84375 5.6875 C 35.832031 5.6875 39.492188 4.585938 41.828125 2.390625 C 44.160156 0.191406 45.328125 -3.066406 45.328125 -7.390625 L 45.328125 -9.1875 C 41.660156 -4.925781 36.300781 -2.796875 29.25 -2.796875 C 24.457031 -2.796875 20.03125 -3.875 15.96875 -6.03125 C 11.914062 -8.195312 8.691406 -11.257812 6.296875 -15.21875 C 3.898438 -19.175781 2.703125 -23.753906 2.703125 -28.953125 C 2.703125 -34.078125 3.898438 -38.617188 6.296875 -42.578125 C 8.691406 -46.535156 11.914062 -49.59375 15.96875 -51.75 C 20.03125 -53.914062 24.457031 -55 29.25 -55 C 36.96875 -55 42.625 -52.503906 46.21875 -47.515625 L 46.21875 -54.109375 Z M 33.734375 -17.875 C 37.128906 -17.875 39.941406 -18.90625 42.171875 -20.96875 C 44.398438 -23.03125 45.515625 -25.691406 45.515625 -28.953125 C 45.515625 -32.210938 44.414062 -34.859375 42.21875 -36.890625 C 40.03125 -38.921875 37.203125 -39.9375 33.734375 -39.9375 C 30.273438 -39.9375 27.429688 -38.921875 25.203125 -36.890625 C 22.972656 -34.859375 21.859375 -32.210938 21.859375 -28.953125 C 21.859375 -25.691406 22.988281 -23.03125 25.25 -20.96875 C 27.519531 -18.90625 30.347656 -17.875 33.734375 -17.875 Z M 33.734375 -17.875 "/></g></g></g><g fill="#00ffff" fill-opacity="1"><g transform="translate(234.740924, 123.765099)"><g><path d="M 61.390625 -26.953125 C 61.390625 -26.816406 61.289062 -25.253906 61.09375 -22.265625 L 21.765625 -22.265625 C 22.554688 -19.460938 24.097656 -17.3125 26.390625 -15.8125 C 28.691406 -14.320312 31.578125 -13.578125 35.046875 -13.578125 C 37.640625 -13.578125 39.882812 -13.941406 41.78125 -14.671875 C 43.675781 -15.398438 45.585938 -16.597656 47.515625 -18.265625 L 57.5 -7.890625 C 52.238281 -2.023438 44.550781 0.90625 34.4375 0.90625 C 28.113281 0.90625 22.554688 -0.289062 17.765625 -2.6875 C 12.972656 -5.09375 9.265625 -8.421875 6.640625 -12.671875 C 4.015625 -16.929688 2.703125 -21.757812 2.703125 -27.15625 C 2.703125 -32.476562 3.976562 -37.25 6.53125 -41.46875 C 9.09375 -45.695312 12.632812 -49.007812 17.15625 -51.40625 C 21.6875 -53.800781 26.78125 -55 32.4375 -55 C 37.832031 -55 42.722656 -53.882812 47.109375 -51.65625 C 51.503906 -49.425781 54.984375 -46.195312 57.546875 -41.96875 C 60.109375 -37.75 61.390625 -32.742188 61.390625 -26.953125 Z M 32.546875 -41.53125 C 29.617188 -41.53125 27.171875 -40.695312 25.203125 -39.03125 C 23.242188 -37.363281 22 -35.101562 21.46875 -32.25 L 43.625 -32.25 C 43.09375 -35.101562 41.84375 -37.363281 39.875 -39.03125 C 37.914062 -40.695312 35.472656 -41.53125 32.546875 -41.53125 Z M 32.546875 -41.53125 "/></g></g></g><g fill="#00ffff" fill-opacity="1"><g transform="translate(288.646012, 123.765099)"><g><path d="M 24.15625 -47.625 C 26.082031 -50.082031 28.59375 -51.925781 31.6875 -53.15625 C 34.789062 -54.382812 38.335938 -55 42.328125 -55 L 42.328125 -37.9375 C 40.597656 -38.132812 39.164062 -38.234375 38.03125 -38.234375 C 33.96875 -38.234375 30.789062 -37.132812 28.5 -34.9375 C 26.207031 -32.738281 25.0625 -29.378906 25.0625 -24.859375 L 25.0625 0 L 6.09375 0 L 6.09375 -54.109375 L 24.15625 -54.109375 Z M 24.15625 -47.625 "/></g></g></g><g fill="#00ffff" fill-opacity="1"><g transform="translate(322.685935, 123.765099)"><g><path d="M 26.75 -52.109375 L 39.625 -52.109375 L 39.625 -37.9375 L 27.25 -37.9375 L 27.25 0 L 8.28125 0 L 8.28125 -37.9375 L 0.40625 -37.9375 L 0.40625 -52.109375 L 8.28125 -52.109375 L 8.28125 -53.515625 C 8.28125 -60.097656 10.257812 -65.316406 14.21875 -69.171875 C 18.1875 -73.035156 23.726562 -74.96875 30.84375 -74.96875 C 33.238281 -74.96875 35.566406 -74.734375 37.828125 -74.265625 C 40.097656 -73.804688 41.960938 -73.109375 43.421875 -72.171875 L 38.734375 -58.796875 C 36.867188 -59.859375 34.972656 -60.390625 33.046875 -60.390625 C 31.046875 -60.390625 29.492188 -59.789062 28.390625 -58.59375 C 27.296875 -57.394531 26.75 -55.632812 26.75 -53.3125 Z M 26.75 -52.109375 "/></g></g></g><g fill="#00ffff" fill-opacity="1"><g transform="translate(353.032343, 123.765099)"><g><path d="M 3.796875 20.265625 C -1.734375 20.265625 -6.128906 19.332031 -9.390625 17.46875 L -4.59375 4 C -2.863281 5.0625 -0.898438 5.59375 1.296875 5.59375 C 3.023438 5.59375 4.390625 4.992188 5.390625 3.796875 C 6.390625 2.597656 6.890625 0.832031 6.890625 -1.5 L 6.890625 -54.109375 L 25.859375 -54.109375 L 25.859375 -1.390625 C 25.859375 5.253906 23.910156 10.523438 20.015625 14.421875 C 16.117188 18.316406 10.710938 20.265625 3.796875 20.265625 Z M 16.359375 -60.09375 C 12.898438 -60.09375 10.101562 -61.054688 7.96875 -62.984375 C 5.84375 -64.921875 4.78125 -67.316406 4.78125 -70.171875 C 4.78125 -73.035156 5.84375 -75.429688 7.96875 -77.359375 C 10.101562 -79.296875 12.898438 -80.265625 16.359375 -80.265625 C 19.828125 -80.265625 22.625 -79.347656 24.75 -77.515625 C 26.875 -75.679688 27.9375 -73.335938 27.9375 -70.484375 C 27.9375 -67.484375 26.875 -65 24.75 -63.03125 C 22.625 -61.070312 19.828125 -60.09375 16.359375 -60.09375 Z M 16.359375 -60.09375 "/></g></g></g><g fill="#fad02c" fill-opacity="1"><g transform="translate(49.043154, 123.765099)"><g><path d="M 24.15625 -47.625 C 26.082031 -50.082031 28.59375 -51.925781 31.6875 -53.15625 C 34.789062 -54.382812 38.335938 -55 42.328125 -55 L 42.328125 -37.9375 C 40.597656 -38.132812 39.164062 -38.234375 38.03125 -38.234375 C 33.96875 -38.234375 30.789062 -37.132812 28.5 -34.9375 C 26.207031 -32.738281 25.0625 -29.378906 25.0625 -24.859375 L 25.0625 0 L 6.09375 0 L 6.09375 -54.109375 L 24.15625 -54.109375 Z M 24.15625 -47.625 "/></g></g></g><g fill="#fad02c" fill-opacity="1"><g transform="translate(83.083086, 123.765099)"><g><path d="M 62.984375 -54.109375 L 62.984375 0 L 44.921875 0 L 44.921875 -5.796875 C 42.921875 -3.597656 40.523438 -1.929688 37.734375 -0.796875 C 34.941406 0.335938 31.976562 0.90625 28.84375 0.90625 C 21.863281 0.90625 16.289062 -1.15625 12.125 -5.28125 C 7.96875 -9.414062 5.890625 -15.609375 5.890625 -23.859375 L 5.890625 -54.109375 L 24.859375 -54.109375 L 24.859375 -26.953125 C 24.859375 -22.890625 25.625 -19.925781 27.15625 -18.0625 C 28.6875 -16.207031 30.914062 -15.28125 33.84375 -15.28125 C 36.832031 -15.28125 39.273438 -16.328125 41.171875 -18.421875 C 43.078125 -20.515625 44.03125 -23.722656 44.03125 -28.046875 L 44.03125 -54.109375 Z M 62.984375 -54.109375 "/></g></g></g><g fill="#fad02c" fill-opacity="1"><g transform="translate(141.979409, 123.765099)"><g><path d="M 43.421875 -2.203125 C 41.828125 -1.203125 39.878906 -0.4375 37.578125 0.09375 C 35.285156 0.632812 32.84375 0.90625 30.25 0.90625 C 23.195312 0.90625 17.769531 -0.820312 13.96875 -4.28125 C 10.175781 -7.75 8.28125 -12.910156 8.28125 -19.765625 L 8.28125 -37.9375 L 0.40625 -37.9375 L 0.40625 -52.109375 L 8.28125 -52.109375 L 8.28125 -66.1875 L 27.25 -66.1875 L 27.25 -52.109375 L 39.625 -52.109375 L 39.625 -37.9375 L 27.25 -37.9375 L 27.25 -19.96875 C 27.25 -18.039062 27.765625 -16.523438 28.796875 -15.421875 C 29.828125 -14.328125 31.207031 -13.78125 32.9375 -13.78125 C 35.132812 -13.78125 37.066406 -14.34375 38.734375 -15.46875 Z M 43.421875 -2.203125 "/></g></g></g><g fill="#fad02c" fill-opacity="1"><g transform="translate(176.418642, 123.765099)"><g><path d="M 64.296875 -54.109375 L 64.296875 -9.890625 C 64.296875 0.160156 61.566406 7.695312 56.109375 12.71875 C 50.648438 17.75 42.796875 20.265625 32.546875 20.265625 C 27.222656 20.265625 22.226562 19.664062 17.5625 18.46875 C 12.90625 17.269531 8.945312 15.503906 5.6875 13.171875 L 12.578125 -0.09375 C 14.773438 1.695312 17.550781 3.109375 20.90625 4.140625 C 24.269531 5.171875 27.582031 5.6875 30.84375 5.6875 C 35.832031 5.6875 39.492188 4.585938 41.828125 2.390625 C 44.160156 0.191406 45.328125 -3.066406 45.328125 -7.390625 L 45.328125 -9.1875 C 41.660156 -4.925781 36.300781 -2.796875 29.25 -2.796875 C 24.457031 -2.796875 20.03125 -3.875 15.96875 -6.03125 C 11.914062 -8.195312 8.691406 -11.257812 6.296875 -15.21875 C 3.898438 -19.175781 2.703125 -23.753906 2.703125 -28.953125 C 2.703125 -34.078125 3.898438 -38.617188 6.296875 -42.578125 C 8.691406 -46.535156 11.914062 -49.59375 15.96875 -51.75 C 20.03125 -53.914062 24.457031 -55 29.25 -55 C 36.96875 -55 42.625 -52.503906 46.21875 -47.515625 L 46.21875 -54.109375 Z M 33.734375 -17.875 C 37.128906 -17.875 39.941406 -18.90625 42.171875 -20.96875 C 44.398438 -23.03125 45.515625 -25.691406 45.515625 -28.953125 C 45.515625 -32.210938 44.414062 -34.859375 42.21875 -36.890625 C 40.03125 -38.921875 37.203125 -39.9375 33.734375 -39.9375 C 30.273438 -39.9375 27.429688 -38.921875 25.203125 -36.890625 C 22.972656 -34.859375 21.859375 -32.210938 21.859375 -28.953125 C 21.859375 -25.691406 22.988281 -23.03125 25.25 -20.96875 C 27.519531 -18.90625 30.347656 -17.875 33.734375 -17.875 Z M 33.734375 -17.875 "/></g></g></g><g fill="#fad02c" fill-opacity="1"><g transform="translate(236.612708, 123.765099)"><g><path d="M 61.390625 -26.953125 C 61.390625 -26.816406 61.289062 -25.253906 61.09375 -22.265625 L 21.765625 -22.265625 C 22.554688 -19.460938 24.097656 -17.3125 26.390625 -15.8125 C 28.691406 -14.320312 31.578125 -13.578125 35.046875 -13.578125 C 37.640625 -13.578125 39.882812 -13.941406 41.78125 -14.671875 C 43.675781 -15.398438 45.585938 -16.597656 47.515625 -18.265625 L 57.5 -7.890625 C 52.238281 -2.023438 44.550781 0.90625 34.4375 0.90625 C 28.113281 0.90625 22.554688 -0.289062 17.765625 -2.6875 C 12.972656 -5.09375 9.265625 -8.421875 6.640625 -12.671875 C 4.015625 -16.929688 2.703125 -21.757812 2.703125 -27.15625 C 2.703125 -32.476562 3.976562 -37.25 6.53125 -41.46875 C 9.09375 -45.695312 12.632812 -49.007812 17.15625 -51.40625 C 21.6875 -53.800781 26.78125 -55 32.4375 -55 C 37.832031 -55 42.722656 -53.882812 47.109375 -51.65625 C 51.503906 -49.425781 54.984375 -46.195312 57.546875 -41.96875 C 60.109375 -37.75 61.390625 -32.742188 61.390625 -26.953125 Z M 32.546875 -41.53125 C 29.617188 -41.53125 27.171875 -40.695312 25.203125 -39.03125 C 23.242188 -37.363281 22 -35.101562 21.46875 -32.25 L 43.625 -32.25 C 43.09375 -35.101562 41.84375 -37.363281 39.875 -39.03125 C 37.914062 -40.695312 35.472656 -41.53125 32.546875 -41.53125 Z M 32.546875 -41.53125 "/></g></g></g><g fill="#fad02c" fill-opacity="1"><g transform="translate(290.517795, 123.765099)"><g><path d="M 24.15625 -47.625 C 26.082031 -50.082031 28.59375 -51.925781 31.6875 -53.15625 C 34.789062 -54.382812 38.335938 -55 42.328125 -55 L 42.328125 -37.9375 C 40.597656 -38.132812 39.164062 -38.234375 38.03125 -38.234375 C 33.96875 -38.234375 30.789062 -37.132812 28.5 -34.9375 C 26.207031 -32.738281 25.0625 -29.378906 25.0625 -24.859375 L 25.0625 0 L 6.09375 0 L 6.09375 -54.109375 L 24.15625 -54.109375 Z M 24.15625 -47.625 "/></g></g></g><g fill="#fad02c" fill-opacity="1"><g transform="translate(324.557719, 123.765099)"><g><path d="M 26.75 -52.109375 L 39.625 -52.109375 L 39.625 -37.9375 L 27.25 -37.9375 L 27.25 0 L 8.28125 0 L 8.28125 -37.9375 L 0.40625 -37.9375 L 0.40625 -52.109375 L 8.28125 -52.109375 L 8.28125 -53.515625 C 8.28125 -60.097656 10.257812 -65.316406 14.21875 -69.171875 C 18.1875 -73.035156 23.726562 -74.96875 30.84375 -74.96875 C 33.238281 -74.96875 35.566406 -74.734375 37.828125 -74.265625 C 40.097656 -73.804688 41.960938 -73.109375 43.421875 -72.171875 L 38.734375 -58.796875 C 36.867188 -59.859375 34.972656 -60.390625 33.046875 -60.390625 C 31.046875 -60.390625 29.492188 -59.789062 28.390625 -58.59375 C 27.296875 -57.394531 26.75 -55.632812 26.75 -53.3125 Z M 26.75 -52.109375 "/></g></g></g><g fill="#fad02c" fill-opacity="1"><g transform="translate(354.904127, 123.765099)"><g><path d="M 3.796875 20.265625 C -1.734375 20.265625 -6.128906 19.332031 -9.390625 17.46875 L -4.59375 4 C -2.863281 5.0625 -0.898438 5.59375 1.296875 5.59375 C 3.023438 5.59375 4.390625 4.992188 5.390625 3.796875 C 6.390625 2.597656 6.890625 0.832031 6.890625 -1.5 L 6.890625 -54.109375 L 25.859375 -54.109375 L 25.859375 -1.390625 C 25.859375 5.253906 23.910156 10.523438 20.015625 14.421875 C 16.117188 18.316406 10.710938 20.265625 3.796875 20.265625 Z M 16.359375 -60.09375 C 12.898438 -60.09375 10.101562 -61.054688 7.96875 -62.984375 C 5.84375 -64.921875 4.78125 -67.316406 4.78125 -70.171875 C 4.78125 -73.035156 5.84375 -75.429688 7.96875 -77.359375 C 10.101562 -79.296875 12.898438 -80.265625 16.359375 -80.265625 C 19.828125 -80.265625 22.625 -79.347656 24.75 -77.515625 C 26.875 -75.679688 27.9375 -73.335938 27.9375 -70.484375 C 27.9375 -67.484375 26.875 -65 24.75 -63.03125 C 22.625 -61.070312 19.828125 -60.09375 16.359375 -60.09375 Z M 16.359375 -60.09375 "/></g></g></g><g clip-path="url(#fc89ae1538)"><g clip-path="url(#f17a488c3b)"><g clip-path="url(#cfdaba858a)"><path fill="#07182f" d="M 242.609375 74.398438 L 252.914062 70.199219 L 250.382812 87.371094 L 256.425781 84.910156 L 248.847656 118.671875 L 248.703125 94.941406 L 242.265625 97.945312 Z M 242.609375 74.398438 " fill-opacity="1" fill-rule="nonzero"/></g></g></g><g clip-path="url(#5800f87ce3)"><g clip-path="url(#8a937241a3)"><g clip-path="url(#1b1a3a0e92)"><path fill="#07182f" d="M 242.609375 74.398438 L 244.386719 73.671875 L 242.265625 97.945312 Z M 248.847656 118.671875 L 249.949219 94.433594 L 248.703125 94.941406 Z M 248.847656 118.671875 " fill-opacity="1" fill-rule="nonzero"/></g></g></g></svg>