<svg xmlns="http://www.w3.org/2000/svg" xmlns:xlink="http://www.w3.org/1999/xlink" width="515" zoomAndPan="magnify" viewBox="0 0 386.25 177.749994" height="237" preserveAspectRatio="xMidYMid meet" version="1.0"><defs><g/><clipPath id="fc4547dcca"><path d="M 24.359375 23.078125 L 361.207031 23.078125 L 361.207031 154.074219 L 24.359375 154.074219 Z M 24.359375 23.078125 " clip-rule="nonzero"/></clipPath><clipPath id="3a0c8f7f1d"><path d="M 215 67 L 230 67 L 230 117 L 215 117 Z M 215 67 " clip-rule="nonzero"/></clipPath><clipPath id="d5a3d31771"><path d="M 205.546875 75.964844 L 225.648438 67.769531 L 242.035156 107.976562 L 221.929688 116.167969 Z M 205.546875 75.964844 " clip-rule="nonzero"/></clipPath><clipPath id="908474ae07"><path d="M 205.546875 75.964844 L 225.648438 67.769531 L 242.035156 107.976562 L 221.929688 116.167969 Z M 205.546875 75.964844 " clip-rule="nonzero"/></clipPath><clipPath id="bf0f216210"><path d="M 215 71 L 224 71 L 224 117 L 215 117 Z M 215 71 " clip-rule="nonzero"/></clipPath><clipPath id="db7f143009"><path d="M 205.546875 75.964844 L 225.648438 67.769531 L 242.035156 107.976562 L 221.929688 116.167969 Z M 205.546875 75.964844 " clip-rule="nonzero"/></clipPath><clipPath id="daec865201"><path d="M 205.546875 75.964844 L 225.648438 67.769531 L 242.035156 107.976562 L 221.929688 116.167969 Z M 205.546875 75.964844 " clip-rule="nonzero"/></clipPath></defs><g clip-path="url(#fc4547dcca)"><path fill="#07182f" d="M 24.359375 23.078125 L 361.207031 23.078125 L 361.207031 154.074219 L 24.359375 154.074219 Z M 24.359375 23.078125 " fill-opacity="1" fill-rule="nonzero"/></g><g fill="#fad02c" fill-opacity="1"><g transform="translate(23.803718, 123.757212)"><g><path d="M 24.15625 -47.609375 C 26.082031 -50.066406 28.59375 -51.910156 31.6875 -53.140625 C 34.78125 -54.367188 38.320312 -54.984375 42.3125 -54.984375 L 42.3125 -37.921875 C 40.582031 -38.117188 39.148438 -38.21875 38.015625 -38.21875 C 33.960938 -38.21875 30.785156 -37.117188 28.484375 -34.921875 C 26.191406 -32.734375 25.046875 -29.375 25.046875 -24.84375 L 25.046875 0 L 6.09375 0 L 6.09375 -54.09375 L 24.15625 -54.09375 Z M 24.15625 -47.609375 "/></g></g></g><g fill="#fad02c" fill-opacity="1"><g transform="translate(57.835955, 123.757212)"><g><path d="M 62.96875 -54.09375 L 62.96875 0 L 44.90625 0 L 44.90625 -5.78125 C 42.914062 -3.59375 40.519531 -1.929688 37.71875 -0.796875 C 34.925781 0.328125 31.96875 0.890625 28.84375 0.890625 C 21.851562 0.890625 16.28125 -1.171875 12.125 -5.296875 C 7.96875 -9.421875 5.890625 -15.601562 5.890625 -23.84375 L 5.890625 -54.09375 L 24.84375 -54.09375 L 24.84375 -26.9375 C 24.84375 -22.882812 25.609375 -19.925781 27.140625 -18.0625 C 28.671875 -16.195312 30.898438 -15.265625 33.828125 -15.265625 C 36.828125 -15.265625 39.273438 -16.3125 41.171875 -18.40625 C 43.066406 -20.507812 44.015625 -23.722656 44.015625 -28.046875 L 44.015625 -54.09375 Z M 62.96875 -54.09375 "/></g></g></g><g fill="#fad02c" fill-opacity="1"><g transform="translate(116.718966, 123.757212)"><g><path d="M 43.40625 -2.203125 C 41.8125 -1.203125 39.863281 -0.4375 37.5625 0.09375 C 35.269531 0.625 32.828125 0.890625 30.234375 0.890625 C 23.179688 0.890625 17.757812 -0.835938 13.96875 -4.296875 C 10.175781 -7.753906 8.28125 -12.910156 8.28125 -19.765625 L 8.28125 -37.921875 L 0.40625 -37.921875 L 0.40625 -52.09375 L 8.28125 -52.09375 L 8.28125 -66.171875 L 27.25 -66.171875 L 27.25 -52.09375 L 39.625 -52.09375 L 39.625 -37.921875 L 27.25 -37.921875 L 27.25 -19.953125 C 27.25 -18.023438 27.765625 -16.507812 28.796875 -15.40625 C 29.828125 -14.3125 31.207031 -13.765625 32.9375 -13.765625 C 35.125 -13.765625 37.050781 -14.332031 38.71875 -15.46875 Z M 43.40625 -2.203125 "/></g></g></g><g fill="#fad02c" fill-opacity="1"><g transform="translate(151.150414, 123.757212)"><g><path d="M 64.265625 -54.09375 L 64.265625 -9.875 C 64.265625 0.164062 61.535156 7.695312 56.078125 12.71875 C 50.628906 17.75 42.78125 20.265625 32.53125 20.265625 C 27.207031 20.265625 22.21875 19.664062 17.5625 18.46875 C 12.90625 17.269531 8.945312 15.503906 5.6875 13.171875 L 12.578125 -0.09375 C 14.773438 1.695312 17.550781 3.109375 20.90625 4.140625 C 24.269531 5.171875 27.582031 5.6875 30.84375 5.6875 C 35.832031 5.6875 39.488281 4.585938 41.8125 2.390625 C 44.144531 0.203125 45.3125 -3.054688 45.3125 -7.390625 L 45.3125 -9.1875 C 41.644531 -4.925781 36.285156 -2.796875 29.234375 -2.796875 C 24.453125 -2.796875 20.03125 -3.875 15.96875 -6.03125 C 11.90625 -8.195312 8.675781 -11.257812 6.28125 -15.21875 C 3.882812 -19.175781 2.6875 -23.75 2.6875 -28.9375 C 2.6875 -34.0625 3.882812 -38.601562 6.28125 -42.5625 C 8.675781 -46.519531 11.90625 -49.578125 15.96875 -51.734375 C 20.03125 -53.898438 24.453125 -54.984375 29.234375 -54.984375 C 36.953125 -54.984375 42.609375 -52.488281 46.203125 -47.5 L 46.203125 -54.09375 Z M 33.734375 -17.859375 C 37.128906 -17.859375 39.9375 -18.890625 42.15625 -20.953125 C 44.382812 -23.015625 45.5 -25.675781 45.5 -28.9375 C 45.5 -32.195312 44.398438 -34.84375 42.203125 -36.875 C 40.015625 -38.90625 37.191406 -39.921875 33.734375 -39.921875 C 30.273438 -39.921875 27.429688 -38.90625 25.203125 -36.875 C 22.972656 -34.84375 21.859375 -32.195312 21.859375 -28.9375 C 21.859375 -25.675781 22.988281 -23.015625 25.25 -20.953125 C 27.507812 -18.890625 30.335938 -17.859375 33.734375 -17.859375 Z M 33.734375 -17.859375 "/></g></g></g><g fill="#fad02c" fill-opacity="1"><g transform="translate(211.330873, 123.757212)"><g><path d="M 61.375 -26.9375 C 61.375 -26.8125 61.273438 -25.25 61.078125 -22.25 L 21.75 -22.25 C 22.550781 -19.457031 24.097656 -17.3125 26.390625 -15.8125 C 28.691406 -14.320312 31.570312 -13.578125 35.03125 -13.578125 C 37.625 -13.578125 39.867188 -13.941406 41.765625 -14.671875 C 43.660156 -15.398438 45.570312 -16.597656 47.5 -18.265625 L 57.484375 -7.890625 C 52.222656 -2.035156 44.539062 0.890625 34.4375 0.890625 C 28.113281 0.890625 22.554688 -0.300781 17.765625 -2.6875 C 12.972656 -5.082031 9.257812 -8.410156 6.625 -12.671875 C 4 -16.929688 2.6875 -21.753906 2.6875 -27.140625 C 2.6875 -32.460938 3.96875 -37.234375 6.53125 -41.453125 C 9.09375 -45.679688 12.632812 -48.992188 17.15625 -51.390625 C 21.6875 -53.785156 26.78125 -54.984375 32.4375 -54.984375 C 37.820312 -54.984375 42.707031 -53.867188 47.09375 -51.640625 C 51.488281 -49.410156 54.96875 -46.179688 57.53125 -41.953125 C 60.09375 -37.734375 61.375 -32.726562 61.375 -26.9375 Z M 32.53125 -41.515625 C 29.601562 -41.515625 27.15625 -40.679688 25.1875 -39.015625 C 23.226562 -37.359375 21.984375 -35.097656 21.453125 -32.234375 L 43.609375 -32.234375 C 43.078125 -35.097656 41.828125 -37.359375 39.859375 -39.015625 C 37.898438 -40.679688 35.457031 -41.515625 32.53125 -41.515625 Z M 32.53125 -41.515625 "/></g></g></g><g fill="#fad02c" fill-opacity="1"><g transform="translate(265.223776, 123.757212)"><g><path d="M 24.15625 -47.609375 C 26.082031 -50.066406 28.59375 -51.910156 31.6875 -53.140625 C 34.78125 -54.367188 38.320312 -54.984375 42.3125 -54.984375 L 42.3125 -37.921875 C 40.582031 -38.117188 39.148438 -38.21875 38.015625 -38.21875 C 33.960938 -38.21875 30.785156 -37.117188 28.484375 -34.921875 C 26.191406 -32.734375 25.046875 -29.375 25.046875 -24.84375 L 25.046875 0 L 6.09375 0 L 6.09375 -54.09375 L 24.15625 -54.09375 Z M 24.15625 -47.609375 "/></g></g></g><g fill="#fad02c" fill-opacity="1"><g transform="translate(299.256005, 123.757212)"><g><path d="M 26.75 -52.09375 L 39.625 -52.09375 L 39.625 -37.921875 L 27.25 -37.921875 L 27.25 0 L 8.28125 0 L 8.28125 -37.921875 L 0.40625 -37.921875 L 0.40625 -52.09375 L 8.28125 -52.09375 L 8.28125 -53.484375 C 8.28125 -60.078125 10.257812 -65.300781 14.21875 -69.15625 C 18.175781 -73.019531 23.71875 -74.953125 30.84375 -74.953125 C 33.238281 -74.953125 35.566406 -74.71875 37.828125 -74.25 C 40.085938 -73.78125 41.945312 -73.082031 43.40625 -72.15625 L 38.71875 -58.78125 C 36.851562 -59.84375 34.957031 -60.375 33.03125 -60.375 C 31.03125 -60.375 29.484375 -59.773438 28.390625 -58.578125 C 27.296875 -57.378906 26.75 -55.617188 26.75 -53.296875 Z M 26.75 -52.09375 "/></g></g></g><g fill="#fad02c" fill-opacity="1"><g transform="translate(329.595553, 123.757212)"><g><path d="M 3.796875 20.265625 C -1.722656 20.265625 -6.113281 19.332031 -9.375 17.46875 L -4.59375 3.984375 C -2.863281 5.054688 -0.898438 5.59375 1.296875 5.59375 C 3.023438 5.59375 4.390625 4.992188 5.390625 3.796875 C 6.390625 2.597656 6.890625 0.832031 6.890625 -1.5 L 6.890625 -54.09375 L 25.84375 -54.09375 L 25.84375 -1.390625 C 25.84375 5.253906 23.894531 10.523438 20 14.421875 C 16.113281 18.316406 10.710938 20.265625 3.796875 20.265625 Z M 16.375 -60.078125 C 12.914062 -60.078125 10.117188 -61.039062 7.984375 -62.96875 C 5.859375 -64.894531 4.796875 -67.289062 4.796875 -70.15625 C 4.796875 -73.019531 5.859375 -75.414062 7.984375 -77.34375 C 10.117188 -79.269531 12.914062 -80.234375 16.375 -80.234375 C 19.832031 -80.234375 22.625 -79.316406 24.75 -77.484375 C 26.882812 -75.660156 27.953125 -73.316406 27.953125 -70.453125 C 27.953125 -67.460938 26.882812 -64.984375 24.75 -63.015625 C 22.625 -61.054688 19.832031 -60.078125 16.375 -60.078125 Z M 16.375 -60.078125 "/></g></g></g><g clip-path="url(#3a0c8f7f1d)"><g clip-path="url(#d5a3d31771)"><g clip-path="url(#908474ae07)"><path fill="#07182f" d="M 215.679688 71.832031 L 225.980469 67.636719 L 223.449219 84.808594 L 229.488281 82.347656 L 221.914062 116.097656 L 221.769531 92.375 L 215.332031 95.375 Z M 215.679688 71.832031 " fill-opacity="1" fill-rule="nonzero"/></g></g></g><g clip-path="url(#bf0f216210)"><g clip-path="url(#db7f143009)"><g clip-path="url(#daec865201)"><path fill="#07182f" d="M 215.679688 71.832031 L 217.453125 71.109375 L 215.332031 95.375 Z M 221.914062 116.097656 L 223.015625 91.867188 L 221.769531 92.375 Z M 221.914062 116.097656 " fill-opacity="1" fill-rule="nonzero"/></g></g></g></svg>